<svg width="100%" viewBox="0 0 200 200" version="1.1" xmlns="http://www.w3.org/2000/svg" xmlns:xlink="http://www.w3.org/1999/xlink"><path d="M0.02635,31.57001v-4.2869c0.36513,-8.04911 2.85784,-14.72789 7.68112,-19.55118c21.22494,-21.2216 78.38157,2.68396 130.11694,54.42266c3.56616,3.56616 12.42589,12.58459 18.83205,19.33316v-11.49201c0,-1.84043 1.49368,-3.33411 3.33411,-3.33411c1.84043,0 3.33411,1.49368 3.33411,3.33411v20.00465c0,0.69416 -0.21272,1.33931 -0.57613,1.8731c-0.1567,0.23105 -0.34541,0.44577 -0.56513,0.63815c-0.25906,0.22605 -0.54346,0.40509 -0.8422,0.53779c-0.30074,0.13336 -0.61614,0.21972 -0.93588,0.25973c-0.15204,0.01867 -0.30507,0.02734 -0.45777,0.02534h-19.96164c-1.84043,0 -3.33411,-1.49368 -3.33411,-3.33411c0,-1.84043 1.49368,-3.33411 3.33411,-3.33411h12.39488c-6.35214,-6.71256 -15.61297,-16.13942 -19.27082,-19.79727c-47.46104,-47.46104 -102.73057,-72.38017 -120.68808,-54.41933c-17.96085,17.96085 6.96162,73.22704 54.41933,120.68808c10.81785,10.81718 22.04146,20.46343 33.13571,28.69801c11.09425,-8.23425 22.31719,-17.88049 33.13471,-28.69801c47.45771,-47.46104 72.38017,-102.72724 54.41933,-120.68808c-11.24595,-11.24262 -38.06552,-5.98806 -70.00962,13.70652c-1.5637,0.96689 -3.62084,0.48011 -4.58773,-1.08692c-0.96689,-1.57037 -0.48011,-3.62418 1.09025,-4.58773c35.23486,-21.72839 64.47834,-26.48616 78.22153,-12.74963c21.22494,21.22494 -2.68062,78.38157 -54.41933,130.12028c-10.5928,10.5928 -21.41265,20.01866 -32.1048,28.12955c35.46892,24.87645 68.65231,34.73442 81.81137,21.57535c11.12926,-11.12926 6.05141,-37.66876 -13.25308,-69.26278c-0.95689,-1.57037 -0.46344,-3.62418 1.10692,-4.5844c1.57703,-0.95689 3.62418,-0.46344 4.5844,1.10692c21.31163,34.87812 25.89936,63.83152 12.27619,77.45469c-5.23789,5.23789 -12.66961,7.72846 -21.66171,7.72846c-18.64667,0.00233 -44.02924,-10.69549 -70.60976,-29.77659c-26.57918,19.07877 -51.96209,29.77659 -70.6081,29.77659c-8.99543,0 -16.42049,-2.49058 -21.66171,-7.72846c-4.7307,-4.72977 -7.26265,-11.34131 -7.67945,-19.39951l0,-4.94182c0.71841,-14.8838 7.70436,-33.83054 20.52634,-54.59104h-13.93114c-1.84043,0 -3.33411,-1.49368 -3.33411,-3.33411c0,-1.84043 1.49368,-3.33411 3.33411,-3.33411h19.9111c0.65829,-0.01934 1.32878,0.15537 1.92131,0.54413c0.44007,0.2894 0.78968,0.66515 1.04084,1.09059c0.2957,0.49778 0.46551,1.07892 0.46551,1.6994v20.00465c0,1.84043 -1.49368,3.33411 -3.33411,3.33411c-1.84043,0 -3.33411,-1.49368 -3.33411,-3.33411v-8.26792c-17.29562,29.80393 -21.65753,55.0298 -10.87186,65.81531c13.16116,13.15639 46.34445,3.3001 81.81137,-21.57435c-10.69182,-8.11122 -21.51167,-17.53741 -32.1048,-28.13055c-37.9524,-37.9525 -60.92833,-78.82001 -62.10045,-106.2822z" fill-rule="evenodd"></path></svg>